<?xml version="1.0" encoding="iso-8859-1"?>
<!-- Generator: Adobe Illustrator 19.0.0, SVG Export Plug-In . SVG Version: 6.00 Build 0)  -->
<svg version="1.1" id="Layer_1" xmlns="http://www.w3.org/2000/svg" xmlns:xlink="http://www.w3.org/1999/xlink" x="0px" y="0px"
	 viewBox="0 0 512 512" style="enable-background:new 0 0 512 512;" xml:space="preserve">
<path style="fill:#874D20;" d="M180.203,365.601l-62.549,110.692c-1.845,3.265-5.234,5.098-8.72,5.098
	c-1.676,0-3.376-0.424-4.937-1.316c-4.811-2.745-6.496-8.891-3.764-13.725l57.531-101.813l-71.325-39.376
	c-4.85-2.677-6.62-8.797-3.957-13.67c2.665-4.873,8.753-6.653,13.604-3.976l80.23,44.292c2.351,1.297,4.085,3.487,4.815,6.079
	S181.527,363.258,180.203,365.601z"/>
<path style="fill:#415E5C;" d="M415.047,325.161l-71.328,39.376l57.532,101.813c2.733,4.835,1.046,10.98-3.764,13.725
	c-1.562,0.892-3.261,1.316-4.937,1.316c-3.487,0-6.875-1.832-8.72-5.098l-62.549-110.692c-1.323-2.343-1.658-5.122-0.927-7.715
	c0.73-2.593,2.464-4.784,4.815-6.079l80.234-44.292c4.851-2.677,10.94-0.897,13.603,3.976
	C421.667,316.363,419.897,322.484,415.047,325.161z"/>
<path style="fill:#0D3131;" d="M151.712,471.319c0,5.56-4.484,10.068-10.017,10.068h-32.754c-5.533,0-10.017-4.507-10.017-10.068
	s4.484-10.067,10.017-10.067h32.754C147.228,461.253,151.712,465.759,151.712,471.319z M392.541,461.253h-32.75
	c-5.533,0-10.017,4.507-10.017,10.068s4.484,10.068,10.017,10.068h32.751c5.533,0,10.017-4.507,10.017-10.068
	S398.074,461.253,392.541,461.253z"/>
<path style="fill:#FFBB5E;" d="M261.109,75.798c-1.306,0-2.632-0.258-3.91-0.803c-5.093-2.173-7.469-8.083-5.307-13.201
	l10.582-25.05c2.162-5.118,8.043-7.504,13.135-5.334c5.093,2.173,7.469,8.083,5.307,13.201l-10.582,25.05
	C268.715,73.496,265.008,75.798,261.109,75.798z M25.442,292.652c-5.091-2.172-10.973,0.215-13.135,5.334L0.799,325.23
	c-2.162,5.118,0.214,11.028,5.307,13.201c1.277,0.544,2.603,0.802,3.91,0.802c3.899,0,7.605-2.302,9.226-6.136l11.508-27.244
	C32.91,300.735,30.535,294.826,25.442,292.652z M505.982,32.19c-5.072-2.222-10.975,0.11-13.185,5.207l-10.715,24.706
	c-2.21,5.097,0.109,11.029,5.181,13.251c1.302,0.571,2.661,0.841,3.997,0.841c3.864,0,7.546-2.261,9.188-6.048l10.715-24.706
	C513.373,40.344,511.054,34.412,505.982,32.19z M276.928,116.829c-2.212-5.097-8.117-7.424-13.186-5.205
	c-5.071,2.223-7.389,8.155-5.179,13.252c4.12,9.496,8.238,17.578,12.589,24.708c1.89,3.098,5.18,4.806,8.549,4.806
	c1.785,0,3.594-0.48,5.228-1.487c4.716-2.907,6.194-9.105,3.302-13.845C284.37,132.733,280.674,125.461,276.928,116.829z"/>
<path style="fill:#FFCE76;" d="M161.787,101.524c0,21.313-17.204,38.589-38.426,38.589c-21.22,0-38.426-17.278-38.426-38.589
	c0-21.313,17.207-38.589,38.426-38.589C144.583,62.934,161.787,80.211,161.787,101.524z M362.804,62.934
	c-21.22,0-38.426,17.277-38.426,38.589s17.207,38.589,38.426,38.589c21.222,0,38.426-17.278,38.426-38.589
	C401.23,80.211,384.026,62.934,362.804,62.934z"/>
<path style="fill:#FFBB5E;" d="M161.787,101.524c0,21.313-17.204,38.589-38.426,38.589c-15.177,0-28.298-8.841-34.541-21.673
	c5.093,2.504,10.818,3.915,16.87,3.915c21.222,0,38.426-17.278,38.426-38.589c0-6.069-1.399-11.808-3.885-16.917
	C152.995,73.123,161.787,86.29,161.787,101.524z M379.674,66.848c2.485,5.109,3.885,10.849,3.885,16.917
	c0,21.311-17.204,38.589-38.426,38.589c-6.053,0-11.777-1.41-16.87-3.915c6.243,12.832,19.364,21.673,34.541,21.673
	c21.222,0,38.426-17.278,38.426-38.589C401.23,86.29,392.439,73.123,379.674,66.848z"/>
<path style="fill:#415E5C;" d="M124.998,229.561l-24.066,89.488c-1.208,4.487-5.25,7.441-9.663,7.441
	c-0.866,0-1.745-0.114-2.621-0.352c-5.34-1.451-8.499-6.98-7.054-12.346l24.066-89.488c1.444-5.368,6.941-8.545,12.286-7.089
	C123.284,218.667,126.443,224.194,124.998,229.561z M264.429,57.88c-5.089-2.169-10.972,0.215-13.135,5.333l-22.372,52.964
	c-17.372,41.128-37.905,58.676-68.66,58.676h-38.808c-51.203,0-74.233,40.487-87.102,70.942l-22.044,52.189
	c-2.162,5.119,0.215,11.028,5.307,13.201c1.278,0.544,2.605,0.803,3.91,0.803c3.899,0,7.605-2.303,9.226-6.137l22.044-52.188
	c17.379-41.128,37.914-58.676,68.661-58.676h38.813c51.209,0,74.233-40.489,87.098-70.943l22.372-52.964
	C271.897,65.963,269.521,60.053,264.429,57.88z"/>
<path style="fill:#677C0F;" d="M419.893,313.814c1.445,5.368-1.713,10.894-7.053,12.347c-0.876,0.238-1.756,0.353-2.622,0.353
	c-4.413,0-8.456-2.954-9.663-7.441l-24.068-89.512c-1.445-5.367,1.713-10.894,7.053-12.347c5.34-1.454,10.841,1.722,12.286,7.088
	L419.893,313.814z M495.267,56.896c-5.073-2.222-10.975,0.109-13.185,5.207l-23.735,54.725
	c-17.872,41.193-39.041,58.766-70.785,58.766h-39.851c-25.37,0-44.27-11.609-59.48-36.537c-2.893-4.739-9.06-6.226-13.776-3.319
	s-6.195,9.105-3.304,13.844c18.946,31.052,43.99,46.146,76.564,46.146h39.849c52.352,0,75.951-40.437,89.148-70.855l23.735-54.727
	C502.658,65.05,500.338,59.118,495.267,56.896z"/>
<path style="fill:#FF431C;" d="M299.967,329.514c-1.84,1.461-4.031,2.17-6.207,2.17c-2.957,0-5.887-1.311-7.864-3.823
	l-10.402-13.221c-3.432-4.361-2.696-10.692,1.644-14.14c4.34-3.448,10.64-2.709,14.071,1.652l10.403,13.221
	C305.043,319.735,304.307,326.066,299.967,329.514z"/>
<path style="fill:#FFD63E;" d="M239.759,231.828l-10.4,13.221c-1.977,2.512-4.907,3.824-7.865,3.824
	c-2.176,0-4.366-0.709-6.206-2.17c-4.34-3.448-5.077-9.779-1.646-14.14l10.4-13.221c3.432-4.362,9.732-5.101,14.071-1.654
	C242.454,221.137,243.191,227.468,239.759,231.828z"/>
<path style="fill:#A7141C;" d="M499.123,231.828l-10.4,13.221c-1.977,2.512-4.907,3.824-7.865,3.824
	c-2.176,0-4.366-0.709-6.206-2.17c-4.34-3.448-5.077-9.779-1.646-14.14l10.4-13.221c3.432-4.362,9.734-5.101,14.071-1.654
	C501.818,221.137,502.554,227.468,499.123,231.828z"/>
<path style="fill:#CDE044;" d="M32.148,158.826c-1.839,1.46-4.03,2.169-6.205,2.169c-2.958,0-5.888-1.311-7.865-3.824L7.679,143.951
	c-3.432-4.362-2.694-10.693,1.646-14.14c4.339-3.447,10.64-2.708,14.071,1.655l10.399,13.22
	C37.226,149.047,36.488,155.378,32.148,158.826z"/>
<path style="fill:#FF7B00;" d="M42.548,418.887c-1.839,1.46-4.03,2.17-6.206,2.17c-2.958,0-5.888-1.311-7.865-3.824l-10.4-13.221
	c-3.432-4.361-2.695-10.692,1.646-14.14c4.34-3.447,10.64-2.708,14.071,1.654l10.4,13.221
	C47.625,409.108,46.888,415.439,42.548,418.887z"/>
<g>
</g>
<g>
</g>
<g>
</g>
<g>
</g>
<g>
</g>
<g>
</g>
<g>
</g>
<g>
</g>
<g>
</g>
<g>
</g>
<g>
</g>
<g>
</g>
<g>
</g>
<g>
</g>
<g>
</g>
</svg>
