<?xml version="1.0" encoding="iso-8859-1"?>
<!-- Generator: Adobe Illustrator 19.0.0, SVG Export Plug-In . SVG Version: 6.00 Build 0)  -->
<svg version="1.1" id="Layer_1" xmlns="http://www.w3.org/2000/svg" xmlns:xlink="http://www.w3.org/1999/xlink" x="0px" y="0px"
	 viewBox="0 0 512 512" style="enable-background:new 0 0 512 512;" xml:space="preserve">
<path style="fill:#D2555A;" d="M51.183,195.754c-8.317-2.085-13.819-5.68-16.354-10.686c-0.138-0.271-0.258-0.539-0.372-0.804
	c9.416-2.517,16.381-11.096,16.381-21.295c0-12.167-9.898-22.065-22.065-22.065h-6.708C9.898,140.904,0,150.802,0,162.969
	c0,10.72,7.685,19.668,17.834,21.648c1.962,9.662,9.495,21.657,29.458,26.661c0.653,0.163,1.308,0.242,1.953,0.242
	c3.583,0,6.846-2.425,7.756-6.058C58.075,201.174,55.47,196.829,51.183,195.754z"/>
<path style="fill:#2A2A33;" d="M11.961,356.316v91.733c0,18.416,14.929,33.346,33.346,33.346l0,0
	c18.416,0,33.346-14.929,33.346-33.346v-91.733H11.961z"/>
<path style="opacity:0.1;enable-background:new    ;" d="M11.961,408.604c14.273,13.523,33.522,21.721,54.629,21.721h12.062v-74.01
	H11.961V408.604z"/>
<path style="fill:#2A2A33;" d="M500.039,356.316v91.733c0,18.416-14.929,33.346-33.346,33.346l0,0
	c-18.416,0-33.346-14.929-33.346-33.346v-91.733H500.039z"/>
<path style="opacity:0.1;enable-background:new    ;" d="M500.039,408.604c-14.273,13.523-33.522,21.721-54.629,21.721h-12.062
	v-74.01h66.691L500.039,408.604L500.039,408.604z"/>
<path style="fill:#D2555A;" d="M500.039,356.316c9.968-97.995-48.168-168.402-48.168-168.402H60.128
	c0,0-58.134,70.407-48.168,168.402c2.855,28.07,26.415,49.469,54.629,49.469h378.819
	C473.625,405.785,497.184,384.386,500.039,356.316z"/>
<path style="opacity:0.1;enable-background:new    ;" d="M75.978,356.316c-9.968-97.995,48.168-168.402,48.168-168.402H60.128
	c0,0-58.134,70.407-48.168,168.402c2.855,28.07,26.415,49.469,54.629,49.469h64.017C102.393,405.785,78.833,384.386,75.978,356.316z
	"/>
<path style="fill:#FF6465;" d="M474.261,223.924c-0.469,0.228-0.924,0.506-1.355,0.833c-21.779,16.602-48.854,25.745-76.237,25.745
	H115.332c-27.385,0-54.46-9.143-76.237-25.745c-0.431-0.329-0.886-0.605-1.355-0.833c-2.28,4.52-4.585,9.413-6.838,14.664
	c24.288,18.003,54.185,27.919,84.431,27.919h281.338c30.246,0,60.141-9.916,84.431-27.918
	C478.845,233.337,476.541,228.444,474.261,223.924z"/>
<circle style="fill:#FFB64D;" cx="79.595" cy="268.948" r="30.355"/>
<path style="opacity:0.1;enable-background:new    ;" d="M70.577,268.944c0-13.009,8.186-24.102,19.685-28.422
	c-3.32-1.247-6.914-1.933-10.67-1.933c-16.764,0-30.355,13.59-30.355,30.355s13.59,30.355,30.355,30.355
	c3.756,0,7.349-0.686,10.67-1.933C78.763,293.047,70.577,281.954,70.577,268.944z"/>
<circle style="fill:#FFB64D;" cx="432.406" cy="268.948" r="30.355"/>
<path style="fill:#D2555A;" d="M489.935,140.904h-6.709c-12.167,0-22.065,9.898-22.065,22.065c0,10.199,6.965,18.778,16.381,21.295
	c-0.114,0.266-0.235,0.533-0.372,0.804c-2.534,5.005-8.036,8.601-16.354,10.686c-4.287,1.074-6.89,5.421-5.816,9.708
	c0.911,3.634,4.173,6.058,7.756,6.058c0.644,0,1.298-0.079,1.953-0.242c19.963-5.004,27.495-16.999,29.458-26.661
	c10.148-1.98,17.834-10.929,17.834-21.649C512,150.802,502.102,140.904,489.935,140.904z"/>
<g>
	<path style="fill:#2A2A33;" d="M238.473,316.188h-93.502c-4.419,0-8.002-3.583-8.002-8.002c0-4.419,3.583-8.002,8.002-8.002h93.502
		c4.419,0,8.002,3.583,8.002,8.002C246.475,312.605,242.892,316.188,238.473,316.188z"/>
	<path style="fill:#2A2A33;" d="M367.029,316.188h-93.502c-4.419,0-8.002-3.583-8.002-8.002c0-4.419,3.583-8.002,8.002-8.002h93.502
		c4.419,0,8.002,3.583,8.002,8.002C375.031,312.605,371.449,316.188,367.029,316.188z"/>
</g>
<g>
	<path style="fill:#FF6465;" d="M501.01,324.771c-2.916,2.065-8.547,5.327-18.4,8.665c-20.037,6.788-60.46,14.879-139.237,14.879
		H168.625c-40.551,0-96.625-2.267-133.479-13.065c-13.653-4-20.703-8.021-24.154-10.584c-0.24,6.039-0.244,12.219,0.025,18.528
		c20.4,9.974,64.109,21.125,157.607,21.125h174.748c93.499,0,137.208-11.151,157.607-21.125
		C501.248,336.92,501.247,330.776,501.01,324.771z"/>
	<path style="fill:#FF6465;" d="M451.873,187.914c0,0-5.214-157.309-116.725-157.309H176.853
		c-111.511,0-116.725,157.309-116.725,157.309H451.873z"/>
</g>
<path style="fill:#99EEFF;" d="M96.49,155.905c2.222-11.074,5.55-23.796,10.514-36.317c7.068-17.825,16.001-31.662,26.551-41.13
	c11.881-10.662,26.043-15.845,43.297-15.845h158.295c17.447,0,31.745,5.306,43.712,16.221c10.618,9.685,19.575,23.812,26.621,41.992
	c4.691,12.105,7.873,24.361,10.024,35.078H96.49V155.905z"/>
<circle style="fill:#FF9140;" cx="60.123" cy="334.501" r="18.523"/>
<path style="opacity:0.1;enable-background:new    ;" d="M54.407,334.504c0-7.977,5.051-14.755,12.122-17.364
	c-1.997-0.737-4.148-1.16-6.402-1.16c-10.23,0-18.523,8.293-18.523,18.523s8.293,18.523,18.523,18.523
	c2.253,0,4.404-0.423,6.402-1.16C59.459,349.26,54.407,342.48,54.407,334.504z"/>
<circle style="fill:#FF9140;" cx="451.867" cy="334.501" r="18.523"/>
<circle style="fill:#BAC2D9;" cx="256.006" cy="308.19" r="17.528"/>
<path style="opacity:0.1;enable-background:new    ;" d="M250.209,308.186c0-7.619,4.87-14.084,11.66-16.499
	c-1.837-0.654-3.807-1.029-5.868-1.029c-9.68,0-17.528,7.848-17.528,17.528c0,9.68,7.847,17.528,17.528,17.528
	c2.061,0,4.031-0.375,5.868-1.029C255.079,322.269,250.209,315.804,250.209,308.186z"/>
<path style="opacity:0.1;enable-background:new    ;" d="M423.391,268.944c0-13.009,8.186-24.102,19.685-28.422
	c-3.32-1.247-6.914-1.933-10.67-1.933c-16.764,0-30.355,13.59-30.355,30.355s13.59,30.355,30.355,30.355
	c3.756,0,7.349-0.686,10.67-1.933C431.577,293.047,423.391,281.954,423.391,268.944z"/>
<path style="opacity:0.1;enable-background:new    ;" d="M446.152,334.504c0-7.977,5.051-14.755,12.122-17.364
	c-1.997-0.737-4.148-1.16-6.402-1.16c-10.23,0-18.523,8.293-18.523,18.523s8.293,18.523,18.523,18.523
	c2.253,0,4.404-0.423,6.402-1.16C451.204,349.26,446.152,342.48,446.152,334.504z"/>
<path style="opacity:0.1;enable-background:new    ;" d="M240.87,30.605h-64.017c-111.511,0-116.725,157.309-116.725,157.309h64.017
	C124.145,187.914,129.36,30.605,240.87,30.605z"/>
<rect x="196.48" y="385.651" style="fill:#BAC2D9;" width="119.04" height="40.273"/>
<path style="opacity:0.1;enable-background:new    ;" d="M196.478,385.648v40.273h45.489
	c-21.214-10.757-21.916-29.799-20.419-40.273H196.478z"/>
<g>
</g>
<g>
</g>
<g>
</g>
<g>
</g>
<g>
</g>
<g>
</g>
<g>
</g>
<g>
</g>
<g>
</g>
<g>
</g>
<g>
</g>
<g>
</g>
<g>
</g>
<g>
</g>
<g>
</g>
</svg>
