<?xml version="1.0" encoding="iso-8859-1"?>
<!-- Generator: Adobe Illustrator 19.0.0, SVG Export Plug-In . SVG Version: 6.00 Build 0)  -->
<svg version="1.1" id="Layer_1" xmlns="http://www.w3.org/2000/svg" xmlns:xlink="http://www.w3.org/1999/xlink" x="0px" y="0px"
	 viewBox="0 0 509.287 509.287" style="enable-background:new 0 0 509.287 509.287;" xml:space="preserve">
<circle style="fill:#4F5565;" cx="254.644" cy="254.644" r="254.644"/>
<rect x="277.39" y="40.704" transform="matrix(-0.955 -0.2966 0.2966 -0.955 557.5372 560.6747)" style="fill:#FBD303;" width="87.82" height="394.68"/>
<g>
	<path style="fill:#F8B517;" d="M371.624,75.613c-5.425-1.695-11.189,1.356-12.885,6.781L255.661,413.669
		c-1.695,5.425,1.356,11.189,6.781,12.885c5.425,1.695,11.189-1.356,12.885-6.781L378.405,88.498
		C380.101,83.073,377.049,77.309,371.624,75.613z"/>
	
		<rect x="389.211" y="87.871" transform="matrix(-0.955 -0.2966 0.2966 -0.955 757.493 294.3945)" style="fill:#F8B517;" width="23.735" height="3.73"/>
	
		<rect x="393.328" y="103.47" transform="matrix(-0.955 -0.2966 0.2966 -0.955 752.2974 324.8033)" style="fill:#F8B517;" width="14.919" height="3.73"/>
	
		<rect x="379.405" y="119.413" transform="matrix(-0.955 -0.2966 0.2966 -0.955 728.9679 353.1504)" style="fill:#F8B517;" width="23.735" height="3.73"/>
	
		<rect x="383.529" y="135.001" transform="matrix(-0.955 -0.2966 0.2966 -0.955 723.7885 383.5413)" style="fill:#F8B517;" width="14.919" height="3.73"/>
	
		<rect x="369.606" y="150.945" transform="matrix(-0.955 -0.2966 0.2966 -0.955 700.4589 411.8884)" style="fill:#F8B517;" width="23.735" height="3.73"/>
	
		<rect x="373.629" y="166.857" transform="matrix(-0.955 -0.2966 0.2966 -0.955 694.9868 442.8824)" style="fill:#F8B517;" width="14.919" height="3.73"/>
	
		<rect x="359.794" y="182.497" transform="matrix(-0.955 -0.2966 0.2966 -0.955 671.9174 470.6621)" style="fill:#F8B517;" width="23.735" height="3.73"/>
	
		<rect x="363.82" y="198.405" transform="matrix(-0.955 -0.2966 0.2966 -0.955 666.4529 501.6506)" style="fill:#F8B517;" width="14.919" height="3.73"/>
	
		<rect x="349.902" y="214.342" transform="matrix(-0.955 -0.2966 0.2966 -0.955 643.132 529.9855)" style="fill:#F8B517;" width="23.735" height="3.73"/>
	
		<rect x="354.005" y="229.94" transform="matrix(-0.955 -0.2966 0.2966 -0.955 637.9099 560.3902)" style="fill:#F8B517;" width="14.919" height="3.73"/>
	
		<rect x="340.096" y="245.88" transform="matrix(-0.955 -0.2966 0.2966 -0.955 614.6078 588.7347)" style="fill:#F8B517;" width="23.735" height="3.73"/>
	
		<rect x="344.116" y="261.799" transform="matrix(-0.955 -0.2966 0.2966 -0.955 609.1271 619.7411)" style="fill:#F8B517;" width="14.919" height="3.73"/>
	
		<rect x="330.284" y="277.419" transform="matrix(-0.955 -0.2966 0.2966 -0.955 586.0704 647.482)" style="fill:#F8B517;" width="23.735" height="3.73"/>
	
		<rect x="334.317" y="293.334" transform="matrix(-0.955 -0.2966 0.2966 -0.955 580.6171 678.4858)" style="fill:#F8B517;" width="14.919" height="3.73"/>
	
		<rect x="320.394" y="309.264" transform="matrix(-0.955 -0.2966 0.2966 -0.955 557.2916 706.8063)" style="fill:#F8B517;" width="23.735" height="3.73"/>
	
		<rect x="324.494" y="324.873" transform="matrix(-0.955 -0.2966 0.2966 -0.955 552.0598 737.2299)" style="fill:#F8B517;" width="14.919" height="3.73"/>
	
		<rect x="310.592" y="340.812" transform="matrix(-0.955 -0.2966 0.2966 -0.955 528.771 765.5765)" style="fill:#F8B517;" width="23.735" height="3.73"/>
	
		<rect x="314.702" y="356.411" transform="matrix(-0.955 -0.2966 0.2966 -0.955 523.562 795.9832)" style="fill:#F8B517;" width="14.919" height="3.73"/>
	
		<rect x="300.773" y="372.347" transform="matrix(-0.955 -0.2966 0.2966 -0.955 500.2213 824.3151)" style="fill:#F8B517;" width="23.735" height="3.73"/>
	
		<rect x="304.81" y="388.273" transform="matrix(-0.955 -0.2966 0.2966 -0.955 494.7717 855.3398)" style="fill:#F8B517;" width="14.919" height="3.73"/>
	
		<rect x="290.88" y="404.203" transform="matrix(-0.955 -0.2966 0.2966 -0.955 471.4329 883.6583)" style="fill:#F8B517;" width="23.735" height="3.73"/>
	
		<rect x="295.018" y="419.801" transform="matrix(-0.955 -0.2966 0.2966 -0.955 466.277 914.0731)" style="fill:#F8B517;" width="14.919" height="3.73"/>
</g>
<rect x="77.924" y="189.74" transform="matrix(-0.2255 -0.9742 0.9742 -0.2255 -36.6672 404.245)" style="fill:#91E874;" width="128.855" height="53.916"/>
<rect x="95.706" y="204.104" transform="matrix(-0.2255 -0.9742 0.9742 -0.2255 -11.031 416.7331)" style="fill:#5FBC40;" width="128.855" height="17.294"/>
<rect x="77.758" y="206.563" transform="matrix(-0.2255 -0.9742 0.9742 -0.2255 -36.9068 404.1309)" style="fill:#73D658;" width="128.855" height="20.345"/>
<path style="fill:#F7CFA2;" d="M133.595,84.429l-41.706,9.494c-3.052,0.678-4.747,3.73-4.069,6.781l13.563,59.338l52.556-12.207
	l-13.563-59.338C139.698,85.785,136.646,83.751,133.595,84.429z"/>
<g>
	<path style="fill:#CCA075;" d="M148.853,123.762l-53.574,12.546c-2.034,0.339-3.052,2.374-2.713,4.408
		c0.339,2.034,2.374,3.052,4.408,2.713l53.574-12.546c2.034-0.339,3.052-2.374,2.713-4.408
		C152.922,124.44,150.887,123.083,148.853,123.762z"/>
	<path style="fill:#CCA075;" d="M151.566,134.273l-53.574,12.546c-2.034,0.339-3.052,2.374-2.713,4.408
		c0.339,2.034,2.374,3.052,4.408,2.713l53.574-12.546c2.034-0.339,3.052-2.374,2.713-4.408
		C155.295,135.29,153.261,133.934,151.566,134.273z"/>
</g>
<polygon style="fill:#F8B517;" points="254.983,81.038 227.857,14.241 201.07,81.038 "/>
<polygon style="fill:#F5EA0A;" points="227.857,81.038 254.983,81.038 227.857,14.241 227.857,14.58 "/>
<polygon style="fill:#FBD303;" points="238.029,81.038 227.857,14.241 217.685,81.038 "/>
<polygon style="fill:#646B79;" points="237.69,38.315 227.857,14.241 218.363,38.315 "/>
<rect x="201.07" y="81.038" style="fill:#6EB1E1;" width="53.913" height="188.524"/>
<rect x="201.07" y="81.038" style="fill:#0087E2;" width="17.293" height="188.524"/>
<rect x="217.685" y="81.038" style="fill:#0090FF;" width="20.344" height="188.524"/>
<path style="fill:#F1F3F7;" d="M115.285,467.581c40.011,26.448,88.159,41.706,139.359,41.706c44.079,0,85.785-11.189,122.066-31.195
	V261.086H115.285V467.581z"/>
<rect x="115.285" y="261.086" style="fill:#FCFCFD;" width="261.425" height="14.919"/>
<g>
</g>
<g>
</g>
<g>
</g>
<g>
</g>
<g>
</g>
<g>
</g>
<g>
</g>
<g>
</g>
<g>
</g>
<g>
</g>
<g>
</g>
<g>
</g>
<g>
</g>
<g>
</g>
<g>
</g>
</svg>
