<?xml version="1.0" encoding="iso-8859-1"?>
<!-- Generator: Adobe Illustrator 19.0.0, SVG Export Plug-In . SVG Version: 6.00 Build 0)  -->
<svg version="1.1" id="Layer_1" xmlns="http://www.w3.org/2000/svg" xmlns:xlink="http://www.w3.org/1999/xlink" x="0px" y="0px"
	 viewBox="0 0 512 512" style="enable-background:new 0 0 512 512;" xml:space="preserve">
<path style="fill:#FFCE76;" d="M166.747,56.769c22.626,0,40.963,18.346,40.963,40.977c0,22.633-18.337,40.977-40.963,40.977
	c-22.62,0-40.961-18.345-40.961-40.977C125.787,75.115,144.127,56.769,166.747,56.769L166.747,56.769z"/>
<path style="fill:#FFBB5E;" d="M207.712,97.745c0,22.633-18.337,40.977-40.963,40.977c-15.965,0-29.79-9.145-36.547-22.48
	c5.562,2.825,11.848,4.428,18.513,4.428c22.626,0,40.963-18.345,40.963-40.977c0-6.657-1.597-12.938-4.413-18.497
	C198.581,67.961,207.712,81.782,207.712,97.745z"/>
<path style="fill:#A7141C;" d="M203.928,511.918c-0.429,0.055-0.854,0.081-1.274,0.081c-4.964,0-9.272-3.695-9.915-8.755
	l-32.23-253.707c-0.697-5.488,3.182-10.504,8.665-11.201c5.481-0.696,10.493,3.186,11.189,8.674l32.23,253.707
	C213.29,506.204,209.411,511.22,203.928,511.918z M145.505,355.622c-5.234-1.774-10.916,1.031-12.691,6.27L86.447,498.763
	c-1.775,5.239,1.03,10.927,6.264,12.704c1.065,0.362,2.149,0.533,3.214,0.533c4.171,0,8.063-2.63,9.476-6.803l46.367-136.871
	C153.544,363.086,150.739,357.398,145.505,355.622z"/>
<path style="fill:#FFBB5E;" d="M317.344,325.236c-1.914,1.733-4.315,2.587-6.708,2.587c-2.731,0-5.451-1.112-7.426-3.299
	L287.6,307.242c-3.706-4.104-3.388-10.438,0.711-14.149c4.099-3.71,10.427-3.391,14.135,0.712l15.609,17.281
	C321.762,315.191,321.443,321.525,317.344,325.236z M17.43,73.059c-3.708-4.104-10.035-4.422-14.135-0.712
	c-4.099,3.711-4.418,10.045-0.711,14.149l18.424,20.397c1.976,2.187,4.695,3.299,7.426,3.299c2.393,0,4.794-0.855,6.708-2.587
	c4.099-3.711,4.418-10.045,0.711-14.149L17.43,73.059z"/>
<path style="fill:#FF431C;" d="M301.734,307.955c-1.914,1.733-4.315,2.587-6.708,2.587c-2.731,0-5.451-1.112-7.426-3.299
	l-50.79-56.228c-17.604-19.488-36.407-38.762-55.71-41.704c-1.461-0.223-8.436-0.57-19.098-0.511
	c-0.124,0.004-0.247,0.008-0.372,0.009c-3.273,0.019-19.88,0.066-25.104-0.732c-25.806-3.931-47.516-25.904-67.541-48.072
	l-47.977-53.112c-3.706-4.104-3.388-10.438,0.711-14.149c4.098-3.711,10.427-3.391,14.135,0.712l47.976,53.112
	c17.605,19.489,36.408,38.763,55.71,41.704c1.463,0.224,8.466,0.501,19.102,0.512c0.122-0.004,0.244-0.008,0.367-0.009
	c3.277-0.017,19.872-0.066,25.1,0.73c25.81,3.933,47.52,25.905,67.545,48.072l50.79,56.228
	C306.151,297.909,305.833,304.244,301.734,307.955z"/>
<path style="fill:#7E9822;" d="M512,501.983c0,5.533-4.48,10.017-10.007,10.017H321.346c-5.527,0-10.007-4.484-10.007-10.017
	c0-5.533,4.48-10.017,10.007-10.017h180.647C507.52,491.965,512,496.45,512,501.983z"/>
<path style="fill:#FFD63E;" d="M511.483,0v101.74v70.256c-94.951,0-171.923-77.003-171.923-171.995h70.286h101.636V0z"/>
<path style="fill:#F49919;" d="M400.507,101.948c4.074,3.739,4.349,10.075,0.613,14.153l-28.7,31.336
	c-1.973,2.155-4.671,3.248-7.379,3.248c-2.416,0-4.838-0.87-6.76-2.633c-4.074-3.739-4.349-10.075-0.613-14.153l28.7-31.336
	C390.103,98.484,396.434,98.208,400.507,101.948z M368.45,57.123c5.513,0,9.991-4.466,10.006-9.987
	c0.017-5.533-4.451-10.031-9.977-10.047l-42.484-0.126c-0.01,0-0.021,0-0.03,0c-5.513,0-9.991,4.466-10.006,9.987
	c-0.017,5.533,4.451,10.031,9.977,10.047l42.484,0.126C368.43,57.123,368.44,57.123,368.45,57.123z M453.913,130.106
	c-5.51-0.016-10.039,4.414-10.077,9.947l-0.298,42.5c-0.039,5.533,4.41,10.049,9.937,10.088c0.024,0,0.048,0,0.072,0
	c5.493,0,9.966-4.439,10.005-9.947l0.298-42.5C463.889,134.662,459.44,130.145,453.913,130.106z M455.888,0h-38.447
	c0,51.962,42.104,94.082,94.043,94.082v-38.43V0H455.888z"/>
<path style="fill:#0D3131;" d="M247.584,501.977c0,5.533-4.48,10.017-10.007,10.017h-34.916c-5.527,0-10.007-4.484-10.007-10.017
	c0-5.533,4.48-10.017,10.007-10.017h34.916C243.103,491.96,247.584,496.444,247.584,501.977z M130.835,491.96H95.919
	c-5.527,0-10.007,4.484-10.007,10.017c0,5.533,4.48,10.017,10.007,10.017h34.916c5.527,0,10.007-4.484,10.007-10.017
	C140.842,496.444,136.362,491.96,130.835,491.96z"/>
<g>
</g>
<g>
</g>
<g>
</g>
<g>
</g>
<g>
</g>
<g>
</g>
<g>
</g>
<g>
</g>
<g>
</g>
<g>
</g>
<g>
</g>
<g>
</g>
<g>
</g>
<g>
</g>
<g>
</g>
</svg>
