<?xml version="1.0" encoding="iso-8859-1"?>
<!-- Generator: Adobe Illustrator 19.0.0, SVG Export Plug-In . SVG Version: 6.00 Build 0)  -->
<svg version="1.1" id="Layer_1" xmlns="http://www.w3.org/2000/svg" xmlns:xlink="http://www.w3.org/1999/xlink" x="0px" y="0px"
	 viewBox="0 0 512 512" style="enable-background:new 0 0 512 512;" xml:space="preserve">
<path style="fill:#FFBB5E;" d="M224.343,278.632h21.699l-19.224,47.714c-2.07,5.136-7.932,7.629-13.095,5.572
	c-5.162-2.058-7.671-7.889-5.602-13.025L224.343,278.632z M433.895,300.892h-20.56l9.206,44.735
	c0.976,4.743,5.172,8.011,9.856,8.011c0.669,0,1.348-0.067,2.029-0.206c5.449-1.11,8.962-6.402,7.847-11.823L433.895,300.892z
	 M47.511,341.612c-1.115,5.421,2.399,10.713,7.847,11.823c0.681,0.139,1.36,0.206,2.03,0.206c4.684,0,8.881-3.269,9.856-8.011
	l9.206-44.735H55.89L47.511,341.612z M454.625,128.098c-5.562,0-10.071,4.484-10.071,10.017v22.426
	c0,5.533,4.509,10.017,10.071,10.017c5.563,0,10.071-4.484,10.071-10.017v-22.426C464.695,132.582,460.186,128.098,454.625,128.098z
	"/>
<path style="fill:#FFCE76;" d="M384.694,46.088c0,25.453-20.679,46.087-46.191,46.087c-25.512,0-46.191-20.634-46.191-46.087
	S312.99,0,338.503,0C364.016,0,384.694,20.635,384.694,46.088z M151.282,0c-25.512,0-46.188,20.635-46.188,46.088
	s20.676,46.087,46.188,46.087s46.195-20.634,46.195-46.087S176.796,0,151.282,0z"/>
<path style="fill:#FFBB5E;" d="M384.694,46.088c0,25.453-20.679,46.087-46.191,46.087c-18.183,0-33.902-10.485-41.439-25.721
	c6.123,2.991,13.003,4.674,20.279,4.674c25.512,0,46.191-20.634,46.191-46.087c0-7.314-1.714-14.225-4.753-20.368
	C374.125,12.168,384.694,27.894,384.694,46.088z M172.557,5.182c3.351,6.383,5.257,13.641,5.257,21.348
	c0,25.453-20.681,46.087-46.194,46.087c-7.673,0-14.903-1.878-21.27-5.18c7.717,14.701,23.145,24.739,40.932,24.739
	c25.512,0,46.195-20.634,46.195-46.087C197.477,28.291,187.361,12.862,172.557,5.182z"/>
<path style="fill:#874D20;" d="M157.242,216.639v285.343c0,5.533-4.509,10.017-10.071,10.017s-10.071-4.484-10.071-10.017V216.639
	c0-5.533,4.509-10.017,10.071-10.017C152.733,206.622,157.242,211.108,157.242,216.639z M342.615,206.622
	c-5.562,0-10.071,4.484-10.071,10.017v285.343c0,5.533,4.509,10.017,10.071,10.017s10.071-4.484,10.071-10.017V216.639
	C352.685,211.108,348.176,206.622,342.615,206.622z"/>
<path style="fill:#415E5C;" d="M435.925,310.757c1.115,5.421-2.399,10.713-7.847,11.823c-0.681,0.139-1.36,0.206-2.03,0.206
	c-4.684,0-8.88-3.269-9.856-8.011l-21.446-104.218c-6.209-30.176-25.422-62.421-60.727-62.421
	c-29.608,0-44.876,23.517-61.242,64.139l-33.022,81.957c-2.069,5.136-7.932,7.629-13.095,5.572
	c-5.163-2.058-7.671-7.889-5.602-13.025l33.022-81.957c14.955-37.119,34.699-76.72,79.938-76.72
	c39.674,0,70.505,30.055,80.46,78.438L435.925,310.757z M257.566,138.119c0-5.533-4.509-10.017-10.071-10.017h-91.729
	c-39.673,0-70.505,30.056-80.46,78.438L53.86,310.757c-1.115,5.421,2.399,10.713,7.847,11.823c0.681,0.139,1.36,0.206,2.03,0.206
	c4.684,0,8.881-3.269,9.856-8.011l21.446-104.218c6.209-30.176,25.422-62.421,60.727-62.421h91.729
	C253.057,148.136,257.566,143.652,257.566,138.119z M454.625,128.101h-33.723c-5.562,0-10.071,4.484-10.071,10.017
	s4.509,10.017,10.071,10.017h33.723c5.563,0,10.071-4.484,10.071-10.017C464.695,132.586,460.186,128.101,454.625,128.101z"/>
<path style="fill:#0D3131;" d="M352.689,501.979c0,5.533-4.509,10.017-10.071,10.017h-39.374c-5.562,0-10.071-4.484-10.071-10.017
	c0-5.533,4.509-10.017,10.071-10.017h39.374C348.18,491.962,352.689,496.446,352.689,501.979z M186.542,491.962h-39.372
	c-5.562,0-10.071,4.484-10.071,10.017c0,5.533,4.509,10.017,10.071,10.017h39.372c5.562,0,10.071-4.484,10.071-10.017
	C196.613,496.446,192.104,491.962,186.542,491.962z"/>
<g>
</g>
<g>
</g>
<g>
</g>
<g>
</g>
<g>
</g>
<g>
</g>
<g>
</g>
<g>
</g>
<g>
</g>
<g>
</g>
<g>
</g>
<g>
</g>
<g>
</g>
<g>
</g>
<g>
</g>
</svg>
