<?xml version="1.0" encoding="iso-8859-1"?>
<!-- Generator: Adobe Illustrator 19.0.0, SVG Export Plug-In . SVG Version: 6.00 Build 0)  -->
<svg version="1.1" id="Layer_1" xmlns="http://www.w3.org/2000/svg" xmlns:xlink="http://www.w3.org/1999/xlink" x="0px" y="0px"
	 viewBox="0 0 512 512" style="enable-background:new 0 0 512 512;" xml:space="preserve">
<path style="fill:#E8DEB3;" d="M470.599,250.023L60.298,285.92c-12.248,1.072-23.044-7.988-24.116-20.236L21.121,93.535
	c-1.072-12.248,7.988-23.044,20.236-24.116l410.301-35.897c12.248-1.072,23.044,7.988,24.116,20.236l15.061,172.149
	C491.907,238.155,482.847,248.951,470.599,250.023z"/>
<path style="fill:#FF4800;" d="M475.728,53.231l15.153,173.202c1.046,11.957-7.799,22.498-19.757,23.544l-97.426,8.524
	L354.758,41.999l97.426-8.524C464.141,32.43,474.682,41.274,475.728,53.231z"/>
<path style="fill:#841C00;" d="M367.879,128.115c-3.062,0.268-5.761-1.997-6.029-5.059l-1.871-21.387
	c-0.268-3.062,1.997-5.761,5.059-6.029l10.562-0.924c3.062-0.268,5.761,1.997,6.029,5.059l1.871,21.387
	c0.268,3.062-1.997,5.761-5.059,6.029L367.879,128.115z M373.705,73.066c3.062-0.268,5.327-2.967,5.059-6.029l-2.356-26.931
	L354.758,42l2.356,26.931c0.268,3.061,2.967,5.327,6.029,5.059L373.705,73.066z M386.364,153.9
	c-0.268-3.061-2.967-5.327-6.029-5.059l-10.563,0.924c-3.062,0.268-5.327,2.967-5.059,6.029l1.871,21.387
	c0.268,3.062,2.967,5.327,6.029,5.059l10.562-0.925c3.062-0.268,5.327-2.967,5.059-6.029L386.364,153.9z"/>
<path style="fill:#D8962B;" d="M207.942,109.383L78.041,120.749c-5.978,0.523-11.25-3.899-11.773-9.878l0,0
	c-0.523-5.978,3.899-11.25,9.878-11.773l129.901-11.365c5.978-0.523,11.25,3.899,11.773,9.878l0,0
	C218.344,103.59,213.921,108.86,207.942,109.383z M221.608,140.911L221.608,140.911c-0.523-5.978-5.793-10.401-11.773-9.878
	l-129.9,11.365c-5.978,0.523-10.401,5.793-9.878,11.773l0,0c0.523,5.978,5.793,10.401,11.773,9.878l129.901-11.365
	C217.709,152.161,222.131,146.891,221.608,140.911z"/>
<path style="fill:#BAA570;" d="M30.466,200.348h458.133l2.236,25.559c1.072,12.248-7.988,23.044-20.236,24.116L60.298,285.92
	c-12.248,1.072-23.044-7.988-24.116-20.236L30.466,200.348z"/>
<path style="fill:#B94B00;" d="M368.612,200.348h119.987l2.282,26.085c1.046,11.957-7.799,22.498-19.757,23.544l-97.426,8.524
	L368.612,200.348z"/>
<path style="fill:#EDB311;" d="M478.609,220.828c18.442,0,33.391,15.054,33.391,33.624v190.534
	c0,18.569-14.949,33.623-33.391,33.623H33.391C14.949,478.609,0,463.555,0,444.985V254.452c0-18.57,14.949-33.624,33.391-33.624
	h189.217v11.208c0,18.884,15.46,34.131,34.33,33.611c18.187-0.502,32.453-15.989,32.453-34.31v-10.509H478.609z"/>
<path style="fill:#FFF48B;" d="M434.087,399.805h-77.913c-6.147,0-11.13-4.983-11.13-11.13c0-6.147,4.983-11.13,11.13-11.13h77.913
	c6.147,0,11.13,4.983,11.13,11.13C445.217,394.822,440.234,399.805,434.087,399.805z M445.217,310.762
	c0-6.147-4.983-11.13-11.13-11.13h-77.913c-6.147,0-11.13,4.983-11.13,11.13s4.983,11.13,11.13,11.13h77.913
	C440.234,321.892,445.217,316.909,445.217,310.762z M445.217,349.718c0-6.147-4.983-11.13-11.13-11.13h-77.913
	c-6.147,0-11.13,4.983-11.13,11.13c0,6.147,4.983,11.13,11.13,11.13h77.913C440.234,360.849,445.217,355.866,445.217,349.718z"/>
<path style="fill:#FF4800;" d="M189.217,338.588h-14.176c-0.987-3.712-2.458-7.224-4.335-10.473l10.11-10.18
	c4.332-4.361,4.307-11.409-0.055-15.741c-4.361-4.332-11.41-4.307-15.741,0.055l-10.029,10.099
	c-3.197-1.859-6.649-3.318-10.296-4.303v-14.366c0-6.147-4.983-11.13-11.13-11.13s-11.13,4.983-11.13,11.13v14.366
	c-3.646,0.985-7.099,2.444-10.296,4.303l-10.029-10.099c-4.333-4.363-11.38-4.385-15.741-0.055
	c-4.362,4.332-4.387,11.38-0.055,15.741l10.11,10.18c-1.878,3.249-3.349,6.761-4.335,10.473H77.913
	c-6.147,0-11.13,4.983-11.13,11.13c0,6.147,4.983,11.13,11.13,11.13h14.176c0.987,3.712,2.458,7.224,4.335,10.473l-10.11,10.18
	c-4.332,4.361-4.307,11.409,0.055,15.741c2.17,2.156,5.008,3.232,7.843,3.232c2.862,0,5.722-1.096,7.898-3.288l10.029-10.099
	c3.197,1.859,6.649,3.318,10.296,4.303v14.366c0,6.147,4.983,11.13,11.13,11.13c6.147,0,11.13-4.983,11.13-11.13v-14.366
	c3.646-0.985,7.099-2.444,10.296-4.303l10.029,10.099c2.176,2.192,5.037,3.288,7.898,3.288c2.835,0,5.672-1.077,7.843-3.232
	c4.362-4.332,4.386-11.38,0.055-15.741l-10.11-10.18c1.878-3.249,3.349-6.761,4.335-10.473h14.178c6.147,0,11.13-4.983,11.13-11.13
	C200.348,343.571,195.365,338.588,189.217,338.588z M133.565,370.61c-11.398,0-20.67-9.372-20.67-20.892s9.273-20.893,20.67-20.893
	c11.398,0,20.67,9.372,20.67,20.893C154.236,361.238,144.963,370.61,133.565,370.61z"/>
<g>
</g>
<g>
</g>
<g>
</g>
<g>
</g>
<g>
</g>
<g>
</g>
<g>
</g>
<g>
</g>
<g>
</g>
<g>
</g>
<g>
</g>
<g>
</g>
<g>
</g>
<g>
</g>
<g>
</g>
</svg>
